<svg xmlns="http://www.w3.org/2000/svg" xmlns:xlink="http://www.w3.org/1999/xlink" width="500" zoomAndPan="magnify" viewBox="0 0 375 374.999991" height="500" preserveAspectRatio="xMidYMid meet" version="1.0"><defs><g/><clipPath id="6c2529a3c4"><path d="M 23.765625 132.863281 L 351.222656 132.863281 L 351.222656 313.375 L 23.765625 313.375 Z M 23.765625 132.863281 " clip-rule="nonzero"/></clipPath></defs><g fill="#fafafa" fill-opacity="1"><g transform="translate(56.113696, 205.882932)"><g><path d="M 16.671875 -11.28125 L 16.671875 -111.5 C 16.671875 -115.425781 15.742188 -117.921875 13.890625 -118.984375 C 12.035156 -120.054688 9.085938 -120.59375 5.046875 -120.59375 L 5.046875 -122.78125 L 46.984375 -122.78125 L 46.984375 -120.59375 C 42.941406 -120.59375 39.96875 -120.054688 38.0625 -118.984375 C 36.15625 -117.921875 35.203125 -115.425781 35.203125 -111.5 L 35.203125 -57.265625 L 84.21875 -111.828125 C 86.90625 -114.523438 88.023438 -116.488281 87.578125 -117.71875 C 87.128906 -118.957031 85.722656 -119.742188 83.359375 -120.078125 C 81.003906 -120.421875 78.3125 -120.59375 75.28125 -120.59375 L 75.28125 -122.78125 L 107.625 -122.78125 L 107.625 -120.59375 C 104.363281 -120.59375 101.609375 -120.394531 99.359375 -120 C 97.117188 -119.601562 95.046875 -118.816406 93.140625 -117.640625 C 91.234375 -116.460938 89.15625 -114.582031 86.90625 -112 L 43.953125 -63.828125 C 46.203125 -60.015625 48.867188 -57.148438 51.953125 -55.234375 C 55.046875 -53.328125 58.050781 -52.375 60.96875 -52.375 C 64.226562 -52.375 67.035156 -53.382812 69.390625 -55.40625 L 99.703125 -11.28125 C 102.285156 -7.6875 104.953125 -5.269531 107.703125 -4.03125 C 110.453125 -2.800781 113.398438 -2.1875 116.546875 -2.1875 L 116.546875 0 L 98.359375 0 C 93.640625 0 89.707031 -0.976562 86.5625 -2.9375 C 83.425781 -4.90625 80.734375 -7.378906 78.484375 -10.359375 C 76.234375 -13.335938 73.988281 -16.34375 71.75 -19.375 L 42.28125 -62.140625 L 35.203125 -54.234375 L 35.203125 -11.28125 C 35.203125 -7.46875 36.15625 -5 38.0625 -3.875 C 39.96875 -2.75 42.941406 -2.1875 46.984375 -2.1875 L 46.984375 0 L 5.046875 0 L 5.046875 -2.1875 C 9.085938 -2.1875 12.035156 -2.75 13.890625 -3.875 C 15.742188 -5 16.671875 -7.46875 16.671875 -11.28125 Z M 16.671875 -11.28125 "/></g></g></g><g clip-path="url(#6c2529a3c4)"><path fill="#ffffff" d="M 294.289062 232.203125 C 296.289062 232.789062 298.34375 233.230469 300.4375 233.53125 C 302.503906 233.824219 304.605469 233.976562 306.730469 233.976562 C 318.996094 233.976562 330.105469 229.003906 338.144531 220.964844 C 346.183594 212.925781 351.15625 201.820312 351.15625 189.550781 C 351.15625 177.28125 346.183594 166.175781 338.144531 158.136719 C 330.105469 150.097656 318.996094 145.125 306.730469 145.125 C 299.910156 145.125 293.449219 146.664062 287.667969 149.410156 C 281.667969 152.265625 276.410156 156.429688 272.257812 161.527344 C 259.6875 176.761719 249.449219 192.746094 239.214844 208.71875 C 218.128906 241.628906 197.070312 274.496094 155.917969 300.167969 C 152.15625 302.21875 148.230469 304.003906 144.164062 305.492188 C 134.742188 308.945312 124.558594 310.832031 113.929688 310.832031 C 89.667969 310.832031 67.703125 300.996094 51.804688 285.097656 C 35.902344 269.199219 26.070312 247.230469 26.070312 222.972656 C 26.070312 198.707031 35.90625 176.742188 51.804688 160.84375 C 66.84375 145.804688 87.308594 136.195312 110.015625 135.199219 C 108.230469 136.488281 107.066406 138.589844 107.066406 140.964844 C 107.066406 144.894531 110.25 148.078125 114.179688 148.078125 C 118.109375 148.078125 121.292969 144.894531 121.292969 140.964844 C 121.292969 137.546875 118.878906 134.6875 115.660156 134.003906 L 115.679688 132.890625 L 113.9375 132.867188 C 89.054688 132.867188 66.527344 142.953125 50.222656 159.261719 C 33.917969 175.566406 23.832031 198.089844 23.832031 222.972656 C 23.832031 247.855469 33.917969 270.382812 50.222656 286.6875 C 66.527344 302.992188 89.054688 313.078125 113.9375 313.078125 C 124.824219 313.078125 135.269531 311.144531 144.941406 307.601562 C 154.960938 303.929688 164.148438 298.527344 172.140625 291.757812 C 204.121094 267.648438 222.601562 238.808594 241.101562 209.933594 C 251.308594 194.003906 261.519531 178.0625 273.992188 162.953125 L 273.128906 162.242188 L 273.996094 162.949219 C 277.9375 158.105469 282.929688 154.15625 288.628906 151.445312 C 294.109375 148.835938 300.25 147.375 306.734375 147.375 C 318.382812 147.375 328.929688 152.097656 336.566406 159.730469 C 344.199219 167.363281 348.921875 177.910156 348.921875 189.558594 C 348.921875 201.210938 344.199219 211.753906 336.566406 219.390625 C 328.929688 227.023438 318.382812 231.746094 306.734375 231.746094 C 304.691406 231.746094 302.695312 231.601562 300.75 231.328125 C 298.753906 231.042969 296.804688 230.621094 294.921875 230.070312 L 294.300781 232.21875 Z M 294.289062 232.203125 " fill-opacity="1" fill-rule="nonzero"/></g><g fill="#fafafa" fill-opacity="1"><g transform="translate(61.651865, 259.78451)"><g><path d="M 2.234375 0 L 1.15625 0 L 1.15625 -10.5 L 2.234375 -10.5 L 2.234375 -5.578125 L 5.78125 -10.5 L 7.15625 -10.5 L 3.296875 -5.25 L 7.15625 0 L 5.78125 0 L 2.234375 -4.921875 Z M 2.234375 0 "/></g></g></g><g fill="#fafafa" fill-opacity="1"><g transform="translate(79.955429, 259.78451)"><g><path d="M 2.234375 0 L 1.15625 0 L 1.15625 -10.5 L 2.234375 -10.5 L 2.234375 -5.78125 L 7.015625 -5.78125 L 7.015625 -10.5 L 8.09375 -10.5 L 8.09375 0 L 7.015625 0 L 7.015625 -4.6875 L 2.234375 -4.6875 Z M 2.234375 0 "/></g></g></g><g fill="#fafafa" fill-opacity="1"><g transform="translate(100.187169, 259.78451)"><g><path d="M 2.859375 -3.859375 L 6.671875 -3.859375 L 4.765625 -8.6875 Z M 9.375 0 L 8.203125 0 L 7.078125 -2.859375 L 2.453125 -2.859375 L 1.328125 0 L 0.15625 0 L 4.765625 -11.21875 Z M 9.375 0 "/></g></g></g><g fill="#fafafa" fill-opacity="1"><g transform="translate(120.696566, 259.78451)"><g><path d="M 9.3125 -5.25 C 9.3125 -4.488281 9.171875 -3.789062 8.890625 -3.15625 C 8.597656 -2.5 8.210938 -1.941406 7.734375 -1.484375 C 7.253906 -1.015625 6.679688 -0.65625 6.015625 -0.40625 C 5.359375 -0.132812 4.65625 0 3.90625 0 L 1.15625 0 L 1.15625 -10.5 L 3.90625 -10.5 C 4.65625 -10.5 5.359375 -10.367188 6.015625 -10.109375 C 6.679688 -9.835938 7.253906 -9.472656 7.734375 -9.015625 C 8.210938 -8.554688 8.597656 -8.003906 8.890625 -7.359375 C 9.171875 -6.710938 9.3125 -6.007812 9.3125 -5.25 Z M 8.265625 -5.25 C 8.265625 -6.445312 7.84375 -7.445312 7 -8.25 C 6.175781 -9.03125 5.15625 -9.421875 3.9375 -9.421875 L 2.234375 -9.421875 L 2.234375 -1.078125 L 3.9375 -1.078125 C 5.15625 -1.078125 6.175781 -1.46875 7 -2.25 C 7.84375 -3.050781 8.265625 -4.050781 8.265625 -5.25 Z M 8.265625 -5.25 "/></g></g></g><g fill="#fafafa" fill-opacity="1"><g transform="translate(141.684138, 259.78451)"><g><path d="M 7.390625 0 L 1.15625 0 L 1.15625 -10.5 L 7.390625 -10.5 L 7.390625 -9.5 L 2.234375 -9.5 L 2.234375 -5.765625 L 7.234375 -5.765625 L 7.234375 -4.734375 L 2.234375 -4.734375 L 2.234375 -1 L 7.390625 -1 Z M 7.390625 0 "/></g></g></g><g fill="#fafafa" fill-opacity="1"><g transform="translate(161.22173, 259.78451)"><g><path d="M 2.234375 -5.1875 L 4.671875 -5.1875 C 5.285156 -5.1875 5.785156 -5.390625 6.171875 -5.796875 C 6.578125 -6.222656 6.78125 -6.742188 6.78125 -7.359375 C 6.78125 -7.972656 6.585938 -8.476562 6.203125 -8.875 C 5.828125 -9.269531 5.316406 -9.46875 4.671875 -9.46875 L 2.234375 -9.46875 Z M 7.859375 -7.328125 C 7.859375 -6.410156 7.535156 -5.648438 6.890625 -5.046875 C 6.304688 -4.515625 5.609375 -4.222656 4.796875 -4.171875 L 8.03125 0 L 6.578125 0 L 3.5 -4.15625 L 2.234375 -4.15625 L 2.234375 0 L 1.15625 0 L 1.15625 -10.5 L 4.515625 -10.5 C 5.453125 -10.5 6.242188 -10.207031 6.890625 -9.625 C 7.535156 -9 7.859375 -8.234375 7.859375 -7.328125 Z M 7.859375 -7.328125 "/></g></g></g><g fill="#fafafa" fill-opacity="1"><g transform="translate(180.610574, 259.78451)"><g/></g></g><g fill="#fafafa" fill-opacity="1"><g transform="translate(195.767372, 259.78451)"><g/></g></g><g fill="#fafafa" fill-opacity="1"><g transform="translate(210.92417, 259.78451)"><g/></g></g><g fill="#fafafa" fill-opacity="1"><g transform="translate(226.091604, 259.78451)"><g><path d="M 2.859375 -3.859375 L 6.671875 -3.859375 L 4.765625 -8.6875 Z M 9.375 0 L 8.203125 0 L 7.078125 -2.859375 L 2.453125 -2.859375 L 1.328125 0 L 0.15625 0 L 4.765625 -11.21875 Z M 9.375 0 "/></g></g></g><g fill="#fafafa" fill-opacity="1"><g transform="translate(246.601001, 259.78451)"><g><path d="M 7.390625 -9.5 L 2.234375 -9.5 L 2.234375 -5.765625 L 7.234375 -5.765625 L 7.234375 -4.734375 L 2.234375 -4.734375 L 2.234375 0 L 1.15625 0 L 1.15625 -10.5 L 7.390625 -10.5 Z M 7.390625 -9.5 "/></g></g></g><g fill="#fafafa" fill-opacity="1"><g transform="translate(265.290209, 259.78451)"><g><path d="M 7.390625 0 L 1.15625 0 L 1.15625 -10.5 L 7.390625 -10.5 L 7.390625 -9.5 L 2.234375 -9.5 L 2.234375 -5.765625 L 7.234375 -5.765625 L 7.234375 -4.734375 L 2.234375 -4.734375 L 2.234375 -1 L 7.390625 -1 Z M 7.390625 0 "/></g></g></g><g fill="#fafafa" fill-opacity="1"><g transform="translate(284.8278, 259.78451)"><g><path d="M 7.390625 0 L 1.15625 0 L 1.15625 -10.5 L 7.390625 -10.5 L 7.390625 -9.5 L 2.234375 -9.5 L 2.234375 -5.765625 L 7.234375 -5.765625 L 7.234375 -4.734375 L 2.234375 -4.734375 L 2.234375 -1 L 7.390625 -1 Z M 7.390625 0 "/></g></g></g><g fill="#fafafa" fill-opacity="1"><g transform="translate(304.365392, 259.78451)"><g><path d="M 2.34375 -1 L 8.3125 -1 L 8.3125 0 L 0.390625 0 L 6.609375 -9.5 L 0.703125 -9.5 L 0.703125 -10.5 L 8.5625 -10.5 Z M 2.34375 -1 "/></g></g></g><g fill="#fafafa" fill-opacity="1"><g transform="translate(174.995711, 233.057867)"><g><path d="M 31.265625 0 L 2.734375 0 L 2.734375 -2.375 C 5.785156 -2.375 8.863281 -3.46875 11.96875 -5.65625 C 15.082031 -7.851562 17.304688 -10.597656 18.640625 -13.890625 L 58.5 -109.3125 L 53.375 -121.75 C 51.914062 -125.40625 49.660156 -127.835938 46.609375 -129.046875 C 43.566406 -130.265625 40.21875 -130.875 36.5625 -130.875 L 36.5625 -133.265625 L 68.546875 -133.265625 L 116.625 -18.46875 C 119.1875 -12.488281 122.019531 -8.3125 125.125 -5.9375 C 128.226562 -3.5625 132.035156 -2.375 136.546875 -2.375 L 136.546875 0 L 85.1875 0 L 85.1875 -2.375 L 90.125 -2.375 C 94.875 -2.375 97.582031 -3.925781 98.25 -7.03125 C 98.925781 -10.144531 98.347656 -13.894531 96.515625 -18.28125 L 86.09375 -43.6875 L 33.453125 -43.6875 L 21.390625 -14.625 C 19.804688 -10.726562 20.109375 -7.710938 22.296875 -5.578125 C 24.492188 -3.441406 27.484375 -2.375 31.265625 -2.375 Z M 59.78125 -106.578125 L 34.546875 -46.0625 L 85 -46.0625 Z M 59.78125 -106.578125 "/></g></g></g></svg>